#!OML:ASF F:\VICON\USERDATA\INSTALL\rory3\rory3.ASF
:FULLY-SPECIFIED
:DEGREES
113
root -9.63202 15.2665 -4.85922 11.5119 12.7289 1.17199
lowerback 30.0098 1.03586 1.15116
upperback 7.3044 2.11266 3.50671
thorax -8.36115 1.02296 2.51231
lowerneck -18.26 9.57193 -4.19704
upperneck 11.0571 15.1876 -7.61008
head 6.6616 6.51295 -0.110028
rclavicle 2.78299e-014 -1.66979e-014
rhumerus -31.1065 -29.5363 -57.254
rradius 67.5557
rwrist 18.038
rhand -38.184 -15.9862
rfingers 7.12502
rthumb -11.2168 -45.6664
lclavicle 2.78299e-014 -1.66979e-014
lhumerus 11.2027 16.0176 68.1282
lradius 58.1418
lwrist -11.8941
lhand -32.0404 46.9118
lfingers 7.12502
lthumb -5.28773 76.8258
rfemur -41.2111 -11.5869 24.1381
rtibia 81.9324
rfoot -32.1183 -2.48379
rtoes -4.03383
lfemur -67.7959 -0.436684 -12.6075
ltibia 47.4203
lfoot 17.913 -17.5849
ltoes -24.4196
114
root -9.5612 15.2295 -4.79088 11.4922 12.1356 1.10838
lowerback 30.0129 1.01713 1.1608
upperback 7.33406 2.08455 3.48893
thorax -8.32661 1.00767 2.49705
lowerneck -16.1302 9.8934 -2.91884
upperneck 8.64709 15.2363 -9.59812
head 5.80675 6.65126 -1.04963
rclavicle -2.22639e-014 1.27222e-014
rhumerus -31.3009 -29.6263 -57.2431
rradius 67.2083
rwrist 17.9005
rhand -38.0006 -16.6895
rfingers 7.12502
rthumb -11.0399 -46.3791
lclavicle -2.22639e-014 1.27222e-014
lhumerus 11.2564 15.9931 67.9003
lradius 58.7123
lwrist -12.0577
lhand -32.3143 50.4537
lfingers 7.12502
lthumb -5.55218 80.3609
rfemur -41.1076 -11.4193 23.7517
rtibia 82.4358
rfoot -32.3112 -2.27557
rtoes -6.89636
lfemur -68.2091 -0.247202 -12.6061
ltibia 48.9254
lfoot 16.7759 -17.9574
ltoes -25.5542
115
root -9.49927 15.1942 -4.72513 11.3904 11.5699 0.943317
lowerback 30.1547 1.03004 1.11009
upperback 7.35455 2.09143 3.54647
thorax -8.37562 1.00974 2.58869
lowerneck -15.4485 10.1211 -2.44319
upperneck 7.98038 15.4406 -10.3866
head 5.59631 6.77634 -1.37895
rclavicle 8.74653e-015 -2.14687e-014
rhumerus -31.6029 -29.4898 -57.1182
rradius 67.15
rwrist 18.0915
rhand -37.4824 -23.0356
rfingers 7.12502
rthumb -10.54 -52.7514
lclavicle 8.74653e-015 -2.14687e-014
lhumerus 11.2013 16.0033 67.6947
lradius 59.2475
lwrist -11.8154
lhand -32.2854 49.3101
lfingers 7.12502
lthumb -5.52429 79.2181
rfemur -41.0364 -11.1028 23.5129
rtibia 82.9534
rfoot -32.4072 -1.7869
rtoes -7.31164
lfemur -68.6006 0.0121284 -12.4832
ltibia 50.3971
lfoot 15.9139 -18.2234
ltoes -24.8449
116
root -9.43665 15.1495 -4.65834 11.3979 11.033 0.797508
lowerback 30.2363 1.0437 1.07643
upperback 7.33596 2.10142 3.58259
thorax -8.43896 1.0131 2.64548
lowerneck -15.3883 10.2503 -2.35972
upperneck 7.89107 15.6105 -10.575
head 5.58833 6.85625 -1.43353
rclavicle 9.54166e-015 -1.19271e-014
rhumerus -31.8544 -29.4979 -57.1047
rradius 67.071
rwrist 18.1176
rhand -37.2286 -33.0722
rfingers 7.12502
rthumb -10.2951 -62.8002
lclavicle 9.54166e-015 -1.19271e-014
lhumerus 11.3128 16.029 67.5407
lradius 59.4556
lwrist -11.7924
lhand -31.7191 46.4808
lfingers 7.12502
lthumb -4.9775 76.4024
rfemur -41.1278 -10.786 23.2619
rtibia 83.5511
rfoot -32.523 -1.32686
rtoes -7.96035
lfemur -69.1964 0.23368 -12.3453
ltibia 51.8292
lfoot 15.335 -18.3564
ltoes -23.317
117
root -9.36689 15.1113 -4.58879 11.5193 10.526 0.887297
lowerback 30.1846 1.01584 0.974972
upperback 7.35868 2.02562 3.54068
thorax -8.38663 0.977482 2.6849
lowerneck -15.3477 10.3576 -2.338
upperneck 7.65778 15.7544 -10.8164
head 5.53781 6.92744 -1.50062
rclavicle -4.6118e-014 -4.85035e-014
rhumerus -32.2571 -29.4791 -57.2039
rradius 67.211
rwrist 17.4823
rhand -37.9769 -38.1351
rfingers 7.12502
rthumb -11.017 -67.826
lclavicle -4.6118e-014 -4.85035e-014
lhumerus 11.6852 16.4356 67.5634
lradius 59.3641
lwrist -12.3534
lhand -31.1173 45.63
lfingers 7.12502
lthumb -4.39642 75.5644
rfemur -41.2259 -10.6573 22.7165
rtibia 84.1576
rfoot -32.6246 -0.961521
rtoes -8.48501
lfemur -69.8462 0.280944 -12.4771
ltibia 53.2205
lfoot 14.7453 -18.2732
ltoes -22.3017
118
root -9.29586 15.0774 -4.51592 11.5453 10.1195 0.936293
lowerback 30.1199 0.93997 0.94154
upperback 7.4425 1.91183 3.5345
thorax -8.25583 0.923215 2.73875
lowerneck -15.3962 10.4148 -2.3716
upperneck 7.59263 15.843 -10.8895
head 5.53321 6.96713 -1.50733
rclavicle 5.56597e-015 -6.36111e-015
rhumerus -32.6371 -29.423 -57.2448
rradius 67.4039
rwrist 17.0096
rhand -39.2133 -32.4702
rfingers 7.12502
rthumb -12.2093 -62.0939
lclavicle 5.56597e-015 -6.36111e-015
lhumerus 11.9829 16.9713 67.6111
lradius 59.2644
lwrist -12.6218
lhand -31.4044 46.7679
lfingers 7.12502
lthumb -4.67365 76.6964
rfemur -41.1785 -10.6323 22.204
rtibia 84.7469
rfoot -32.5309 -0.447308
rtoes -8.43573
lfemur -70.3532 0.31518 -12.6487
ltibia 54.5646
lfoot 14.021 -18.2145
ltoes -21.8674
119
root -9.22373 15.0373 -4.43904 11.4608 9.62291 0.732547
lowerback 30.1347 0.855332 1.05833
upperback 7.50726 1.83973 3.59091
thorax -8.18429 0.885895 2.7609
lowerneck -15.4942 10.4379 -2.56424
upperneck 7.67526 15.9062 -10.7409
head 5.54965 6.99328 -1.42319
rclavicle 2.06736e-014 1.43125e-014
rhumerus -32.4347 -29.4688 -57.3554
rradius 66.9998
rwrist 17.1953
rhand -39.5518 -14.9148
rfingers 7.12502
rthumb -12.5357 -44.5188
lclavicle 2.06736e-014 1.43125e-014
lhumerus 12.1104 17.3468 67.5716
lradius 59.3895
lwrist -12.7123
lhand -31.2824 46.8543
lfingers 7.12502
lthumb -4.55584 76.7853
rfemur -41.0976 -10.4206 21.9344
rtibia 85.3403
rfoot -32.4855 0.250329
rtoes -8.22109
lfemur -70.7796 0.448588 -12.4943
ltibia 55.9136
lfoot 13.396 -18.0663
ltoes -21.3032
120
root -9.15051 14.994 -4.36442 11.4353 9.00828 0.574623
lowerback 30.2535 0.853498 1.17428
upperback 7.50153 1.86663 3.55586
thorax -8.24402 0.894483 2.64447
lowerneck -15.6195 10.5123 -2.56555
upperneck 7.72036 16.0183 -10.7332
head 5.58808 7.04032 -1.40124
rclavicle 3.18055e-015 -2.3059e-014
rhumerus -32.1768 -29.8297 -57.5538
rradius 66.3885
rwrist 17.5971
rhand -39.9253 -14.5426
rfingers 7.12502
rthumb -12.8958 -44.1241
lclavicle 3.18055e-015 -2.3059e-014
lhumerus 12.1908 17.3801 67.3767
lradius 59.6137
lwrist -12.7764
lhand -30.9173 43.1618
lfingers 7.12502
lthumb -4.20332 73.1001
rfemur -41.1246 -10.1554 21.5844
rtibia 85.9264
rfoot -32.4983 0.961413
rtoes -8.43224
lfemur -71.2509 0.674958 -12.3978
ltibia 57.2882
lfoot 12.5661 -18.0411
ltoes -21.4667
121
root -9.07339 14.9688 -4.29639 11.3345 8.43413 0.542041
lowerback 30.5259 0.783472 1.33638
upperback 7.51489 1.81765 3.43989
thorax -8.34781 0.866483 2.43705
lowerneck -15.5365 10.6256 -2.48953
upperneck 7.4499 16.1413 -10.9065
head 5.51586 7.11194 -1.46136
rclavicle -2.70347e-014 1.35174e-014
rhumerus -32.191 -30.0973 -57.6926
rradius 66.067
rwrist 17.9098
rhand -39.9661 -14.4742
rfingers 7.12502
rthumb -12.9351 -44.0533
lclavicle -2.70347e-014 1.35174e-014
lhumerus 12.137 17.5568 67.0843
lradius 59.89
lwrist -13.0423
lhand -30.4272 46.5279
lfingers 7.12502
lthumb -3.72996 76.475
rfemur -41.0522 -9.97933 21.0341
rtibia 86.432
rfoot -32.399 2.08219
rtoes -7.40537
lfemur -71.5668 0.721246 -12.3741
ltibia 58.7422
lfoot 11.5562 -17.8849
ltoes -21.5811
122
root -9.00262 14.9341 -4.22114 11.1755 7.78213 0.528074
lowerback 30.7827 0.828555 1.24697
upperback 7.522 1.84858 3.42193
thorax -8.46523 0.879644 2.45721
lowerneck -15.1164 10.7788 -2.29865
upperneck 7.16487 16.2954 -11.2427
head 5.41037 7.2049 -1.59938
rclavicle 7.15625e-015 -2.46493e-014
rhumerus -32.4471 -30.1595 -57.5371
rradius 65.9948
rwrist 18.1609
rhand -39.6138 -15.0977
rfingers 7.12502
rthumb -12.5955 -44.698
lclavicle 7.15625e-015 -2.46493e-014
lhumerus 12.004 17.6624 66.9247
lradius 60.2485
lwrist -13.1853
lhand -30.5285 46.7651
lfingers 7.12502
lthumb -3.82779 76.7105
rfemur -40.8738 -9.71354 20.5025
rtibia 87.0086
rfoot -32.4564 2.6095
rtoes -7.55016
lfemur -71.8086 0.939995 -12.4467
ltibia 60.2534
lfoot 10.3802 -17.7731
ltoes -22.2674
123
root -8.9279 14.8435 -4.16699 12.0759 5.7351 -0.017064
lowerback 29.7999 1.4945 0.853108
upperback 7.36547 2.53518 3.4442
thorax -8.21655 1.20244 2.46684
lowerneck -14.8599 10.9043 -2.44272
upperneck 7.07349 16.4617 -11.2278
head 5.33413 7.29995 -1.57421
rclavicle 3.97569e-015 -1.27222e-014
rhumerus -32.6867 -30.1016 -57.3581
rradius 65.8841
rwrist 17.965
rhand -39.2223 -16.1992
rfingers 7.12502
rthumb -12.218 -45.8223
lclavicle 3.97569e-015 -1.27222e-014
lhumerus 11.8244 17.8429 66.8588
lradius 60.5266
lwrist -13.2477
lhand -30.6339 45.5682
lfingers 7.12502
lthumb -3.92962 75.5117
rfemur -42.6444 -7.98898 20.4562
rtibia 88.0131
rfoot -32.0536 3.11891
rtoes -7.94124
lfemur -73.4033 2.53421 -12.0322
ltibia 61.9287
lfoot 9.41445 -17.418
ltoes -22.7901
124
root -8.85512 14.7834 -4.09569 12.3567 4.66882 0.0519127
lowerback 29.5378 1.7481 0.391754
upperback 7.31752 2.70786 3.42143
thorax -8.17128 1.2879 2.64957
lowerneck -14.9323 10.9551 -2.80847
upperneck 7.17486 16.5912 -11.0443
head 5.33719 7.35629 -1.45092
rclavicle -2.70347e-014 -1.03368e-014
rhumerus -32.9912 -29.94 -57.1457
rradius 65.7047
rwrist 17.5508
rhand -38.9677 -17.3307
rfingers 7.12502
rthumb -11.9725 -46.9683
lclavicle -2.70347e-014 -1.03368e-014
lhumerus 11.6946 18.1946 66.8138
lradius 60.4764
lwrist -13.3693
lhand -30.9255 43.3291
lfingers 7.12502
lthumb -4.21124 73.2672
rfemur -43.3242 -7.4653 19.8067
rtibia 88.8964
rfoot -31.8668 3.81817
rtoes -8.52626
lfemur -74.0996 3.13767 -12.2415
ltibia 63.397
lfoot 8.3175 -17.2443
ltoes -22.8196
125
root -8.7804 14.7394 -4.02128 12.264 4.33516 0.138155
lowerback 29.6667 1.63505 0.405964
upperback 7.36734 2.56473 3.39511
thorax -8.1679 1.21886 2.66186
lowerneck -14.8348 11.0433 -2.73024
upperneck 7.0976 16.7164 -11.3214
head 5.33552 7.40978 -1.53631
rclavicle -1.03368e-014 -1.51076e-014
rhumerus -33.0563 -29.9761 -57.1067
rradius 65.4124
rwrist 17.5049
rhand -38.9784 -17.3194
rfingers 7.12502
rthumb -11.9828 -46.9564
lclavicle -1.03368e-014 -1.51076e-014
lhumerus 11.8251 18.4694 66.7332
lradius 60.3946
lwrist -13.5305
lhand -31.3322 42.5019
lfingers 7.12502
lthumb -4.60393 72.4319
rfemur -43.426 -7.66579 19.2127
rtibia 89.6755
rfoot -31.6926 4.92119
rtoes -7.5699
lfemur -74.3747 3.16264 -12.4805
ltibia 64.7218
lfoot 7.1351 -17.3184
ltoes -23.296
126
root -8.71168 14.6913 -3.95301 12.2814 4.21043 0.0905151
lowerback 29.6991 1.44941 0.575649
upperback 7.37815 2.38019 3.41036
thorax -8.15624 1.12917 2.64672
lowerneck -14.5968 11.2335 -2.32173
upperneck 6.97214 16.9345 -11.8329
head 5.34986 7.51064 -1.73346
rclavicle -2.38542e-015 -2.06736e-014
rhumerus -33.2084 -30.0662 -57.154
rradius 65.4361
rwrist 17.5112
rhand -39.0996 -16.4141
rfingers 7.12502
rthumb -12.0997 -46.0443
lclavicle -2.38542e-015 -2.06736e-014
lhumerus 11.8814 18.4397 66.5691
lradius 60.6795
lwrist -13.2018
lhand -31.7398 46.0402
lfingers 7.12502
lthumb -4.99749 75.9613
rfemur -43.3916 -7.98154 18.8673
rtibia 90.3258
rfoot -31.7088 5.27152
rtoes -8.41398
lfemur -74.7727 3.17291 -12.5942
ltibia 65.8612
lfoot 6.19217 -17.4636
ltoes -23.8844
